<?xml version="1.0" encoding="utf-8"?>
<!-- Generator: Adobe Illustrator 25.0.1, SVG Export Plug-In . SVG Version: 6.00 Build 0)  -->
<svg version="1.1" id="Layer_1" xmlns="http://www.w3.org/2000/svg" xmlns:xlink="http://www.w3.org/1999/xlink" x="0px" y="0px"
	 viewBox="0 0 500 500" style="enable-background:new 0 0 500 500;" xml:space="preserve">
<style type="text/css">
	.st0{clip-path:url(#SVGID_2_);}
	.st1{fill:#FE4715;}
</style>
<g>
	<g>
		<defs>
			<rect id="SVGID_1_" x="55.1" y="54.7" width="390.3" height="390.3"/>
		</defs>
		<clipPath id="SVGID_2_">
			<use xlink:href="#SVGID_1_"  style="overflow:visible;"/>
		</clipPath>
		<g class="st0">
			<path class="st1" d="M430.9,218H420c-0.9,0-1.9-0.3-3.4-0.3c-4.3-0.9-8.4-2.8-12.4-4.7c-0.9-0.6-1.9-0.9-2.8-1.6
				c-0.3-0.3-0.9-0.6-1.2-0.9c-0.6-0.3-0.9-0.6-1.6-1.2c-1.6-1.2-3.1-2.8-4.7-4.3c0,0,0,0-0.3-0.3c-0.9-0.9-1.6-1.9-2.2-3.1
				c-0.9-1.2-1.6-2.8-2.8-4c-0.9-1.9-1.9-4-3.1-6.2c-0.3-1.2-0.9-2.8-1.2-4c-0.3-0.9-0.3-1.9-0.6-2.8c0.3-0.9,0-2.2,0-3.7
				c0-0.3,0-0.6,0-0.9c0-4,0.3-7.8,1.2-11.2c1.6-5.6,4.3-10.9,7.5-15.8c0.6-0.6,1.2-1.2,1.6-2.2l5.9-6.2c5-5,5.3-13.4,0.6-18.6
				c-5.9-7.5-12.7-14.3-19.9-20.5L179.3,303.7c-3.4,3.1-8.7,0.9-8.7-3.7c0.3-34.8,0.9-94.4,1.2-124.2c0-5,6.5-6.5,9.3-2.2l20.8,36.6
				c1.6,3.1,5.6,3.4,8.1,0.9l93.1-93.1c0,0-0.3,0-0.3-0.3c-1.2-0.6-2.2-1.2-3.7-1.9c-0.6-0.6-1.6-0.9-2.2-1.6
				c-0.9-0.6-1.9-1.6-3.1-2.2c-0.3-0.3-0.3-0.3-0.6-0.6c-3.1-3.1-5-5.9-6.8-9.3c-3.1-5.6-5-11.5-5.9-17.7c-0.3-0.9-0.3-2.2-0.6-3.4
				c0-0.6,0-1.2,0-1.9v-8.7c0-7.8-5.6-13.7-13-14.3c-5.6-0.3-11.2-0.6-17.1-0.6c-5.3,0-10.9,0.3-16.1,0.6c-7.5,0.6-13,6.5-13,14
				c0,4.3-0.3,9.3-1.2,14.3c-0.9,5.9-3.1,11.8-5.9,17.7c-1.6,3.4-4,6.2-6.8,9c-0.3,0.3-0.3,0.3-0.6,0.6c-0.9,0.9-1.9,1.6-3.1,2.2
				c-0.6,0.6-1.6,0.9-2.2,1.6c-1.2,0.6-2.2,1.2-3.7,1.9c-1.9,0.9-4.3,1.9-6.2,2.2c-1.6,0.6-3.1,0.9-4.7,0.9
				c-1.2,0.3-2.2,0.3-3.7,0.3h-0.3c-1.9,0-4.3,0-6.2,0c-0.6,0-1.2,0-1.9-0.3c-0.6,0-1.2-0.3-1.6-0.3c-0.9-0.3-1.9-0.3-3.1-0.6
				c-4.3-1.2-8.4-3.1-11.8-5c-1.9-0.9-3.7-2.2-5.3-3.7c-0.6-0.6-1.2-0.9-1.9-1.6l-6.5-6.8c-5-5.3-13.7-5.9-19.3-1.2
				c-9,7.8-17.4,15.8-24.5,24.8c-4.7,5.6-4,13.7,0.6,18.6l5.9,6.2c0.6,0.6,1.2,1.2,1.6,2.2c3.1,4.7,5.9,10.2,7.5,15.8
				c0.9,3.7,1.2,7.5,1.2,11.2c0,0.3,0,0.6,0,0.9c0,1.2-0.3,2.2-0.3,3.7c0,0.9-0.3,1.9-0.6,2.8c-0.3,1.2-0.6,2.8-1.2,4
				c-0.6,2.2-1.6,4.3-3.1,6.2c-0.6,1.2-1.6,2.8-2.8,4c-0.6,0.9-1.6,1.9-2.2,3.1c0,0,0,0-0.3,0.3c-1.2,1.6-3.1,3.1-4.7,4.3
				c-0.6,0.3-0.9,0.9-1.6,1.2c-0.3,0.3-0.9,0.6-1.2,0.9c-0.9,0.6-1.9,0.9-2.8,1.6c-4,1.9-8.1,3.7-12.4,4.7c-0.9,0-1.9,0.3-3.4,0.3
				H69.1c-6.8,0-13.4,5.3-14,12.7c0.3,6.2,0,13,0,19.3c0,5.3,0.3,10.6,0.6,15.8c0.6,7.5,6.2,13,13.7,13l9.9,0.3c0.9,0,1.9,0,3.1,0.3
				c4,0.9,7.8,2.2,11.2,4c3.4,1.6,6.2,4,9.3,6.5c0.3,0.3,0.3,0.3,0.6,0.6c0.9,0.9,1.6,1.9,2.2,2.8c0.6,0.6,1.2,1.2,1.6,2.2
				c0.6,1.2,1.6,2.2,2.2,3.7c0.9,1.9,1.9,4,2.8,6.2c0.6,1.6,0.9,3.1,1.2,4.7c0.3,1.2,0.3,2.2,0.6,3.7v0.3c0.3,1.9,0.3,4.3,0,6.2
				c0,0.6,0,1.2,0,1.9s0,1.2-0.3,1.6c-0.3,0.9-0.3,1.9-0.6,3.1c-0.9,4.3-2.8,8.4-4.7,11.8c-0.6,1.2-1.2,2.8-2.2,3.7
				c-0.6,0.6-0.9,1.6-1.9,2.2l-6.2,6.8c-5,5-5.6,13-1.2,18.6c6.8,9,14.9,17.4,23.3,24.5l204.3-200.9c3.4-3.1,8.7-0.9,8.7,3.7
				c-0.3,34.8-0.9,94.4-1.2,124.2c0,5-6.5,6.5-9.3,2.2L302,287.5c-1.6-3.1-5.6-3.4-8.1-0.9l-97.5,97.8c0,0,0.3,0,0.3,0.3
				c0.9,0.6,1.9,1.2,3.1,2.2c0,0,0,0,0.3,0.3c1.6,1.2,3.1,2.8,4.3,4.3c0.3,0.6,0.9,0.9,1.2,1.6c0.3,0.3,0.6,0.9,0.9,1.2
				c0.6,0.9,0.9,1.6,1.6,2.8c2.2,3.7,4,7.8,5,11.8c1.9,7.5,2.8,14.6,2.8,20.8c0,7.5,5.6,13.4,12.7,14c6.8,0.6,14.3,1.2,21.4,1.2
				c7.1,0,14.3-0.3,21.4-1.2c6.8-0.6,12.7-6.5,12.7-14c0-6.2,0.6-14,2.8-20.8c0.9-4,2.8-8.1,5-11.8c0.6-0.9,0.9-1.6,1.6-2.8
				c0.3-0.3,0.6-0.9,0.9-1.2c0.3-0.6,0.9-0.9,1.2-1.6c1.2-1.6,2.8-3.1,4.3-4.3c0,0,0,0,0.3-0.3c0.9-0.6,1.9-1.6,3.1-2.2
				c1.2-0.9,2.8-1.6,4.3-2.2c1.9-0.9,4-1.9,6.2-2.8c1.2-0.3,2.8-0.6,4-0.9c0.9-0.3,1.9-0.3,3.1-0.3s2.2-0.3,3.7-0.3
				c0.3,0,0.6,0,0.9,0c4,0,7.8,0.6,11.2,1.6c5,1.6,9.6,4,14,6.8c0.6,0.6,1.6,1.2,2.2,1.9l6.8,7.5c5.3,5.3,13.7,5.6,19.3,0.9
				c9-8.1,17.1-16.1,24.2-25.5c4.3-5.6,3.7-13.7-1.2-18.6l-6.2-6.2c-0.6-0.6-1.2-1.2-1.9-2.2c-0.6-1.2-1.6-2.2-2.2-3.7
				c-1.9-3.7-3.7-7.8-4.7-11.8c-0.3-0.9-0.6-1.9-0.6-3.1c0-0.6-0.3-1.2-0.3-1.6c0-0.6,0-1.2,0-1.9c0-1.9,0-4,0-6.2v-0.3
				c0-1.2,0.3-2.2,0.6-3.7c0.3-1.6,0.6-3.1,1.2-4.7c0.6-1.9,1.6-4.3,2.8-6.2c0.6-1.2,1.2-2.2,2.2-3.7c0.6-0.6,0.9-1.6,1.6-2.2
				c0.6-0.9,1.6-1.9,2.2-2.8c0.3-0.3,0.3-0.3,0.6-0.6c2.8-2.8,5.9-5,9.3-6.5c3.7-1.9,7.5-3.4,11.2-4c0.9-0.3,1.9-0.3,3.1-0.3
				l9.9-0.3c7.5-0.3,13-5.9,13.7-13c0.3-5.3,0.6-10.6,0.6-15.8c0-6.5-0.3-13-0.9-19.3C443.6,223.6,437.7,218.3,430.9,218z"/>
		</g>
	</g>
</g>
</svg>
